<svg xmlns="http://www.w3.org/2000/svg" viewBox="0 0 200 200" width="200" height="200">
  <!-- Left antler main beam -->
  <path d="M 72 52 C 65 45, 55 38, 48 28 C 44 22, 42 14, 45 8 C 47 4, 50 3, 52 5 C 54 7, 53 12, 55 16 C 58 22, 63 26, 67 32 C 64 24, 62 16, 65 10 C 67 6, 70 5, 72 7 C 74 9, 73 15, 74 20 C 76 28, 80 34, 82 40 C 78 32, 76 24, 80 18 C 82 14, 85 14, 86 17 C 88 21, 86 28, 85 34 C 83 40, 82 46, 82 52 Z" fill="#1a1a1a"/>
  <!-- Right antler main beam -->
  <path d="M 128 52 C 135 45, 145 38, 152 28 C 156 22, 158 14, 155 8 C 153 4, 150 3, 148 5 C 146 7, 147 12, 145 16 C 142 22, 137 26, 133 32 C 136 24, 138 16, 135 10 C 133 6, 130 5, 128 7 C 126 9, 127 15, 126 20 C 124 28, 120 34, 118 40 C 122 32, 124 24, 120 18 C 118 14, 115 14, 114 17 C 112 21, 114 28, 115 34 C 117 40, 118 46, 118 52 Z" fill="#1a1a1a"/>
  <!-- Left antler brow tine -->
  <path d="M 74 58 C 68 54, 60 52, 54 48 C 50 45, 48 41, 50 38 C 52 35, 56 36, 59 39 C 63 43, 68 50, 74 56 Z" fill="#1a1a1a"/>
  <!-- Right antler brow tine -->
  <path d="M 126 58 C 132 54, 140 52, 146 48 C 150 45, 152 41, 150 38 C 148 35, 144 36, 141 39 C 137 43, 132 50, 126 56 Z" fill="#1a1a1a"/>
  <!-- Skull / top of head -->
  <ellipse cx="100" cy="68" rx="30" ry="18" fill="#1a1a1a"/>
  <!-- Left ear -->
  <path d="M 68 72 C 60 68, 54 64, 52 58 C 50 53, 53 48, 57 50 C 61 52, 65 58, 68 64 Z" fill="#1a1a1a"/>
  <!-- Right ear -->
  <path d="M 132 72 C 140 68, 146 64, 148 58 C 150 53, 147 48, 143 50 C 139 52, 135 58, 132 64 Z" fill="#1a1a1a"/>
  <!-- Face / head — clean bottom, no beard -->
  <path d="M 70 70 C 65 75, 62 82, 62 90 C 62 100, 65 110, 70 118 C 76 128, 86 136, 100 138 C 114 136, 124 128, 130 118 C 135 110, 138 100, 138 90 C 138 82, 135 75, 130 70 Z" fill="#1a1a1a"/>
  <!-- Eyes -->
  <circle cx="83" cy="87" r="7" fill="#fff"/>
  <circle cx="117" cy="87" r="7" fill="#fff"/>
  <circle cx="83" cy="87" r="4" fill="#1a1a1a"/>
  <circle cx="117" cy="87" r="4" fill="#1a1a1a"/>
  <circle cx="84.5" cy="85.5" r="1.5" fill="#fff"/>
  <circle cx="118.5" cy="85.5" r="1.5" fill="#fff"/>
  <!-- Snout -->
  <ellipse cx="100" cy="116" rx="16" ry="11" fill="#1a1a1a"/>
  <!-- Nostrils -->
  <ellipse cx="94" cy="118" rx="3" ry="2" fill="#333"/>
  <ellipse cx="106" cy="118" rx="3" ry="2" fill="#333"/>
</svg>
