<svg xmlns="http://www.w3.org/2000/svg" viewBox="0 0 200 160" width="200" height="160">
  <!-- Moose silhouette with purple outline -->
  <path
    d="M 155 25
       C 158 20, 165 15, 170 12
       C 172 10, 175 8, 177 6
       C 179 4, 181 5, 180 8
       C 178 11, 174 13, 172 16
       C 175 14, 180 10, 183 9
       C 186 8, 187 10, 185 13
       C 182 16, 177 18, 174 20
       C 178 18, 184 14, 187 15
       C 190 16, 189 19, 186 22
       C 183 25, 177 26, 173 27
       C 170 28, 168 30, 166 32

       C 164 30, 162 28, 160 27
       C 162 22, 161 18, 158 16
       C 156 14, 153 14, 151 16
       C 149 18, 149 22, 150 26
       C 148 24, 147 21, 144 20
       C 141 19, 139 21, 140 24
       C 141 27, 144 29, 146 31

       C 143 32, 140 35, 138 38
       C 135 42, 133 47, 132 52
       C 130 50, 127 49, 124 50
       C 120 51, 117 54, 116 58
       C 114 63, 115 69, 118 73
       C 121 77, 125 79, 129 80
       L 128 95
       C 124 95, 120 97, 118 100
       L 112 130
       C 110 138, 111 144, 114 146
       C 117 148, 120 146, 121 140
       L 126 115
       C 127 112, 129 110, 131 110
       L 140 110
       C 142 110, 144 112, 145 115
       L 148 140
       C 149 146, 152 148, 155 146
       C 158 144, 158 138, 157 130
       L 153 105
       C 152 100, 154 96, 157 95
       L 162 95
       C 165 96, 167 100, 166 105
       L 163 130
       C 162 138, 163 144, 166 146
       C 169 148, 172 146, 173 140
       L 176 115
       C 177 112, 179 110, 181 110
       L 190 110
       C 192 110, 194 112, 195 115
       L 196 140
       C 197 146, 200 148, 200 144
       L 198 115
       C 197 108, 194 103, 189 101
       L 180 99
       L 178 80
       C 184 78, 189 74, 192 68
       C 195 62, 194 55, 190 50
       C 186 45, 180 43, 174 44
       C 170 44, 167 46, 165 49
       L 163 42
       C 161 37, 160 33, 158 30
       Z"
    fill="#1a1a1a"
    stroke="#8b7cf8"
    stroke-width="2.5"
    stroke-linejoin="round"
    stroke-linecap="round"
  />
</svg>
